# xmcd CD database file
#
# Track frame offsets:
#	150
#	8128
#	21686
#	57638
#	79716
#	107486
#	157604
#	192800
#	210906
#	225779
#	251327
#
# Disc length: 3531 seconds
#
# Revision: 1
# Processed by: cddbd v1.5.2PL0 Copyright (c) Steve Scherf et al.
# Submitted via: CDex 1.51
#
DISCID=760dc90b
DTITLE=Special Delivery - Crossings
DYEAR=2008
DGENRE=Jazz
TTITLE0=Miniatures (1)
TTITLE1=Miniatures (2)
TTITLE2=Miniatures (3)
TTITLE3=Miniatures (4)
TTITLE4=Self Portrait
TTITLE5=Crossings
TTITLE6=Processio
TTITLE7=Corazon
TTITLE8=The Bad, the Good and the Ugly (1)
TTITLE9=The Bad, the Good and the Ugly (2)
TTITLE10=The Bad, the Good and the Ugly (3)
EXTD=YEAR: 2008
EXTT0=
EXTT1=
EXTT2=
EXTT3=
EXTT4=
EXTT5=
EXTT6=
EXTT7=
EXTT8=
EXTT9=
EXTT10=
PLAYORDER=
